<?xml version="1.0" encoding="UTF-8"?>
<svg width="19px" height="16px" viewBox="0 0 19 16" version="1.1" xmlns="http://www.w3.org/2000/svg" xmlns:xlink="http://www.w3.org/1999/xlink">
    <!-- Generator: sketchtool 51.3 (57544) - http://www.bohemiancoding.com/sketch -->
    <title>887FF405-5493-436E-8529-534D67168A33</title>
    <desc>Created with sketchtool.</desc>
    <defs></defs>
    <g id="style-guide" stroke="none" stroke-width="1" fill="none" fill-rule="evenodd">
        <g id="icons" transform="translate(-547.000000, -41.000000)" fill="#ED1C24">
            <path d="M552.842246,48.8967742 C553.587348,49.2064532 554.171567,49.6967708 554.59492,50.3677419 C555.018273,51.038713 555.229947,51.838705 555.229947,52.7677419 C555.229947,54.0064578 554.840467,55.0215014 554.061497,55.8129032 C553.282527,56.604305 552.317296,57 551.165775,57 C549.946518,57 548.947419,56.604305 548.168449,55.8129032 C547.389479,55.0215014 547,54.0064578 547,52.7677419 C547,52.148384 547.076202,51.5462395 547.22861,50.9612903 C547.381017,50.3763412 547.67736,49.4989306 548.117647,48.3290323 L550.81016,41 L554.874332,41 L552.842246,48.8967742 Z M563.612299,48.8967742 C564.357401,49.2064532 564.94162,49.6967708 565.364973,50.3677419 C565.788327,51.038713 566,51.838705 566,52.7677419 C566,54.0064578 565.610521,55.0215014 564.831551,55.8129032 C564.052581,56.604305 563.08735,57 561.935829,57 C560.716571,57 559.717473,56.604305 558.938503,55.8129032 C558.159533,55.0215014 557.770053,54.0064578 557.770053,52.7677419 C557.770053,52.148384 557.846256,51.5462395 557.998663,50.9612903 C558.15107,50.3763412 558.447413,49.4989306 558.887701,48.3290323 L561.580214,41 L565.644385,41 L563.612299,48.8967742 Z" id="quote_ico"></path>
        </g>
    </g>
</svg>